<svg xmlns="http://www.w3.org/2000/svg" xmlns:svg="http://www.w3.org/2000/svg" xmlns:xlink="http://www.w3.org/1999/xlink" id="svg2761" width="64" height="64"><defs id="defs2763"><radialGradient id="radialGradient2831" cx="62.225" cy="-3.442" r="10.081" fx="62.225" fy="-3.442" gradientTransform="matrix(0.918134,0,0,0.854079,2.429764,1.490099)" gradientUnits="userSpaceOnUse" xlink:href="#linearGradient8740"/><radialGradient id="radialGradient2829" cx="25.969" cy="17.258" r="9.822" fx="25.969" fy="17.258" gradientTransform="matrix(6.168149e-2,2.223638,-1.495968,4.148028e-2,50.51125,-44.50839)" gradientUnits="userSpaceOnUse" xlink:href="#linearGradient8918"/><radialGradient id="radialGradient2835" cx="62.225" cy="-3.442" r="10.081" fx="62.225" fy="-3.442" gradientTransform="matrix(1,0,0,0.930233,0,-0.240141)" gradientUnits="userSpaceOnUse" xlink:href="#linearGradient8740"/><linearGradient id="linearGradient8918"><stop id="stop8920" offset="0" style="stop-color:#cee14b"/><stop id="stop8922" offset="1" style="stop-color:#9db029"/></linearGradient><radialGradient id="radialGradient2833" cx="25.969" cy="17.258" r="9.822" fx="25.969" fy="17.258" gradientTransform="matrix(6.718136e-2,2.42191,-1.629357,4.51789e-2,52.36869,-50.34012)" gradientUnits="userSpaceOnUse" xlink:href="#linearGradient8918"/><radialGradient id="radialGradient2823" cx="62.225" cy="-3.442" r="10.081" fx="62.225" fy="-3.442" gradientTransform="matrix(1,0,0,0.930233,0.311259,0.486131)" gradientUnits="userSpaceOnUse" xlink:href="#linearGradient8740"/><radialGradient id="radialGradient2821" cx="24.479" cy="17.574" r="2.972" fx="24.479" fy="17.574" gradientTransform="matrix(0.222034,8.004376,-0.597156,1.656095e-2,29.85665,-181.6002)" gradientUnits="userSpaceOnUse" xlink:href="#linearGradient8912"/><radialGradient id="radialGradient2827" cx="62.225" cy="-3.442" r="10.081" fx="62.225" fy="-3.442" gradientTransform="matrix(1,0,0,0.930233,0,-0.240141)" gradientUnits="userSpaceOnUse" xlink:href="#linearGradient8740"/><linearGradient id="linearGradient8912"><stop style="stop-color:#cee14b" id="stop8914" offset="0"/><stop style="stop-color:#9db029" id="stop8916" offset="1"/></linearGradient><radialGradient id="radialGradient2825" cx="24.479" cy="17.574" r="2.972" fx="24.479" fy="17.574" gradientTransform="matrix(0.222034,8.004376,-0.597156,1.656095e-2,29.5454,-182.3268)" gradientUnits="userSpaceOnUse" xlink:href="#linearGradient8912"/><radialGradient id="radialGradient2815" cx="62.225" cy="-3.442" r="10.081" fx="62.225" fy="-3.442" gradientTransform="matrix(1,0,0,0.930233,0,0.589884)" gradientUnits="userSpaceOnUse" xlink:href="#linearGradient8740"/><radialGradient id="radialGradient2813" cx="25.135" cy="14.542" r="4.135" fx="25.135" fy="14.542" gradientTransform="matrix(0.159592,5.753335,-0.8072,2.23703e-2,32.87305,-130.867)" gradientUnits="userSpaceOnUse" xlink:href="#linearGradient8930"/><radialGradient id="radialGradient2819" cx="62.225" cy="-3.442" r="10.081" fx="62.225" fy="-3.442" gradientTransform="matrix(1,0,0,0.930233,0,-0.240141)" gradientUnits="userSpaceOnUse" xlink:href="#linearGradient8740"/><linearGradient id="linearGradient8930"><stop id="stop8932" offset="0" style="stop-color:#cee14b"/><stop id="stop8934" offset="1" style="stop-color:#9db029"/></linearGradient><radialGradient id="radialGradient2817" cx="25.135" cy="14.542" r="4.135" fx="25.135" fy="14.542" gradientTransform="matrix(0.159592,5.753335,-0.8072,2.23703e-2,32.87305,-131.6974)" gradientUnits="userSpaceOnUse" xlink:href="#linearGradient8930"/><radialGradient id="radialGradient2807" cx="62.225" cy="-3.442" r="10.081" fx="62.225" fy="-3.442" gradientTransform="matrix(0.891018,0,0,0.828854,1.579517,2.39052)" gradientUnits="userSpaceOnUse" xlink:href="#linearGradient8740"/><radialGradient id="radialGradient2805" cx="24.653" cy="18.944" r="8.617" fx="24.652" fy="18.944" gradientTransform="matrix(6.822876e-2,2.459669,-1.754905,4.868429e-2,55.12882,-46.82188)" gradientUnits="userSpaceOnUse" xlink:href="#linearGradient8924"/><radialGradient id="radialGradient2811" cx="62.225" cy="-3.442" r="10.081" fx="62.225" fy="-3.442" gradientTransform="matrix(1,0,0,0.930233,0,-0.240141)" gradientUnits="userSpaceOnUse" xlink:href="#linearGradient8740"/><linearGradient id="linearGradient8924"><stop id="stop8926" offset="0" style="stop-color:#cee14b"/><stop id="stop8928" offset="1" style="stop-color:#9db029"/></linearGradient><radialGradient id="radialGradient2809" cx="24.653" cy="18.944" r="8.617" fx="24.652" fy="18.944" gradientTransform="matrix(7.657394e-2,2.760516,-1.969551,5.463895e-2,60.09901,-55.47179)" gradientUnits="userSpaceOnUse" xlink:href="#linearGradient8924"/><radialGradient id="radialGradient2803" cx="62.225" cy="-3.442" r="10.081" fx="62.225" fy="-3.442" gradientTransform="matrix(1,0,0,0.930233,0,-0.240141)" gradientUnits="userSpaceOnUse" xlink:href="#linearGradient8740"/><radialGradient id="radialGradient2801" cx="62.225" cy="-3.442" r="10.081" fx="62.225" fy="-3.442" gradientTransform="matrix(1,0,0,0.930233,0,-0.240141)" gradientUnits="userSpaceOnUse" xlink:href="#linearGradient8740"/><radialGradient id="radialGradient2799" cx="62.225" cy="-3.442" r="10.081" fx="62.225" fy="-3.442" gradientTransform="matrix(1,0,0,0.930233,0,-0.240141)" gradientUnits="userSpaceOnUse" xlink:href="#linearGradient8740"/><radialGradient id="radialGradient2797" cx="62.225" cy="-3.442" r="10.081" fx="62.225" fy="-3.442" gradientTransform="matrix(1,0,0,0.930233,0,-0.240141)" gradientUnits="userSpaceOnUse" xlink:href="#linearGradient8740"/><radialGradient id="radialGradient2795" cx="62.225" cy="-3.442" r="10.081" fx="62.225" fy="-3.442" gradientTransform="matrix(1,0,0,0.930233,0,-0.240141)" gradientUnits="userSpaceOnUse" xlink:href="#linearGradient8740"/><radialGradient id="radialGradient2793" cx="62.225" cy="-3.442" r="10.081" fx="62.225" fy="-3.442" gradientTransform="matrix(1,0,0,0.930233,0,-0.240141)" gradientUnits="userSpaceOnUse" xlink:href="#linearGradient8740"/><radialGradient id="radialGradient2791" cx="62.225" cy="-3.442" r="10.081" fx="62.225" fy="-3.442" gradientTransform="matrix(1,0,0,0.930233,0,-0.240141)" gradientUnits="userSpaceOnUse" xlink:href="#linearGradient8740"/><radialGradient id="radialGradient2789" cx="62.225" cy="-3.442" r="10.081" fx="62.225" fy="-3.442" gradientTransform="matrix(1,0,0,0.930233,0,-0.240141)" gradientUnits="userSpaceOnUse" xlink:href="#linearGradient8740"/><radialGradient id="radialGradient2787" cx="62.225" cy="-3.442" r="10.081" fx="62.225" fy="-3.442" gradientTransform="matrix(1,0,0,0.930233,0,-0.240141)" gradientUnits="userSpaceOnUse" xlink:href="#linearGradient8740"/><radialGradient id="radialGradient2785" cx="62.225" cy="-3.442" r="10.081" fx="62.225" fy="-3.442" gradientTransform="matrix(1,0,0,0.930233,0,-0.240141)" gradientUnits="userSpaceOnUse" xlink:href="#linearGradient8740"/><radialGradient id="radialGradient2781" cx="62.225" cy="-3.442" r="10.081" fx="62.225" fy="-3.442" gradientTransform="matrix(1,0,0,0.930233,0,-0.240141)" gradientUnits="userSpaceOnUse" xlink:href="#linearGradient8740"/><radialGradient id="radialGradient2783" cx="62.225" cy="-3.442" r="10.081" fx="62.225" fy="-3.442" gradientTransform="matrix(1,0,0,0.930233,0,-0.240141)" gradientUnits="userSpaceOnUse" xlink:href="#linearGradient8740"/><radialGradient id="radialGradient2779" cx="62.225" cy="-3.442" r="10.081" fx="62.225" fy="-3.442" gradientTransform="matrix(1,0,0,0.930233,0,-0.240141)" gradientUnits="userSpaceOnUse" xlink:href="#linearGradient8740"/><radialGradient id="radialGradient2775" cx="62.225" cy="-3.442" r="10.081" fx="62.225" fy="-3.442" gradientTransform="matrix(1,0,0,0.930233,0,0.79739)" gradientUnits="userSpaceOnUse" xlink:href="#linearGradient8740"/><radialGradient id="radialGradient2777" cx="62.225" cy="-3.442" r="10.081" fx="62.225" fy="-3.442" gradientTransform="matrix(1,0,0,0.930233,0,-0.240141)" gradientUnits="userSpaceOnUse" xlink:href="#linearGradient8740"/><radialGradient id="radialGradient2773" cx="62.225" cy="-3.442" r="10.081" fx="62.225" fy="-3.442" gradientTransform="matrix(1,0,0,0.930233,0,-0.240141)" gradientUnits="userSpaceOnUse" xlink:href="#linearGradient8740"/><radialGradient id="radialGradient2771" cx="62.225" cy="-3.442" r="10.081" fx="62.225" fy="-3.442" gradientTransform="matrix(1,0,0,0.930233,0,-0.240141)" gradientUnits="userSpaceOnUse" xlink:href="#linearGradient8740"/><radialGradient id="radialGradient2767" cx="62.225" cy="-3.442" r="10.081" fx="62.225" fy="-3.442" gradientTransform="matrix(1,0,0,0.930233,0,-0.240141)" gradientUnits="userSpaceOnUse" xlink:href="#linearGradient8740"/><radialGradient id="radialGradient2769" cx="62.225" cy="-3.442" r="10.081" fx="62.225" fy="-3.442" gradientTransform="matrix(1,0,0,0.930233,0,-0.240141)" gradientUnits="userSpaceOnUse" xlink:href="#linearGradient8740"/><radialGradient id="radialGradient2765" cx="62.225" cy="-3.442" r="10.081" fx="62.225" fy="-3.442" gradientTransform="matrix(1,0,0,0.930233,0,-0.240141)" gradientUnits="userSpaceOnUse" xlink:href="#linearGradient8740"/><radialGradient id="radialGradient2763" cx="62.225" cy="-3.442" r="10.081" fx="62.225" fy="-3.442" gradientTransform="matrix(1,0,0,0.930233,0,-0.240141)" gradientUnits="userSpaceOnUse" xlink:href="#linearGradient8740"/><radialGradient id="radialGradient2759" cx="62.225" cy="-3.442" r="10.081" fx="62.225" fy="-3.442" gradientTransform="matrix(1,0,0,0.930233,0,-0.240141)" gradientUnits="userSpaceOnUse" xlink:href="#linearGradient8740"/><radialGradient id="radialGradient2761" cx="62.225" cy="-3.442" r="10.081" fx="62.225" fy="-3.442" gradientTransform="matrix(1,0,0,0.930233,0,-0.240141)" gradientUnits="userSpaceOnUse" xlink:href="#linearGradient8740"/><radialGradient id="radialGradient2757" cx="62.225" cy="-3.442" r="10.081" fx="62.225" fy="-3.442" gradientTransform="matrix(1,0,0,0.930233,0,-0.240141)" gradientUnits="userSpaceOnUse" xlink:href="#linearGradient8740"/><radialGradient id="radialGradient2753" cx="62.225" cy="-3.442" r="10.081" fx="62.225" fy="-3.442" gradientTransform="matrix(1,0,0,0.930233,0,-0.240141)" gradientUnits="userSpaceOnUse" xlink:href="#linearGradient8740"/><radialGradient id="radialGradient2755" cx="62.225" cy="-3.442" r="10.081" fx="62.225" fy="-3.442" gradientTransform="matrix(1,0,0,0.930233,0,-0.240141)" gradientUnits="userSpaceOnUse" xlink:href="#linearGradient8740"/><radialGradient id="radialGradient2751" cx="62.225" cy="-3.442" r="10.081" fx="62.225" fy="-3.442" gradientTransform="matrix(1,0,0,0.930233,0,-0.240141)" gradientUnits="userSpaceOnUse" xlink:href="#linearGradient8740"/><radialGradient id="radialGradient2749" cx="62.225" cy="-3.442" r="10.081" fx="62.225" fy="-3.442" gradientTransform="matrix(1,0,0,0.930233,0,-0.240141)" gradientUnits="userSpaceOnUse" xlink:href="#linearGradient8740"/><radialGradient id="radialGradient2745" cx="62.225" cy="-3.442" r="10.081" fx="62.225" fy="-3.442" gradientTransform="matrix(1,0,0,0.930233,0,-0.240141)" gradientUnits="userSpaceOnUse" xlink:href="#linearGradient8740"/><radialGradient id="radialGradient2747" cx="62.225" cy="-3.442" r="10.081" fx="62.225" fy="-3.442" gradientTransform="matrix(1,0,0,0.930233,0,-0.240141)" gradientUnits="userSpaceOnUse" xlink:href="#linearGradient8740"/><radialGradient id="radialGradient2743" cx="62.225" cy="-3.442" r="10.081" fx="62.225" fy="-3.442" gradientTransform="matrix(1,0,0,0.930233,0,-0.240141)" gradientUnits="userSpaceOnUse" xlink:href="#linearGradient8740"/><linearGradient id="linearGradient8740"><stop style="stop-color:#fff;stop-opacity:1" id="stop8742" offset="0"/><stop style="stop-color:#fff;stop-opacity:0" id="stop8744" offset="1"/></linearGradient><radialGradient id="radialGradient2741" cx="62.225" cy="-3.442" r="10.081" fx="62.225" fy="-3.442" gradientTransform="matrix(1,0,0,0.930233,0,-0.240141)" gradientUnits="userSpaceOnUse" xlink:href="#linearGradient8740"/><linearGradient id="linearGradient4873"><stop id="stop4875" offset="0" style="stop-color:#fff;stop-opacity:1"/><stop id="stop4877" offset="1" style="stop-color:#fff;stop-opacity:0"/></linearGradient><linearGradient id="linearGradient2739" x1="63.397" x2="68.911" y1="-9.383" y2="16.839" gradientUnits="userSpaceOnUse" xlink:href="#linearGradient4873"/><linearGradient id="linearGradient8647"><stop style="stop-color:#8fb1dc;stop-opacity:1" id="stop8649" offset="0"/><stop style="stop-color:#3465a4;stop-opacity:1" id="stop8651" offset="1"/></linearGradient><radialGradient id="radialGradient2737" cx="62.2" cy="-8.726" r="9.755" fx="62.2" fy="-8.726" gradientTransform="matrix(1.122354,0,0,1.122379,-7.610472,1.067717)" gradientUnits="userSpaceOnUse" xlink:href="#linearGradient8647"/><linearGradient id="linearGradient8838"><stop style="stop-color:#000;stop-opacity:1" id="stop8840" offset="0"/><stop style="stop-color:#000;stop-opacity:0" id="stop8842" offset="1"/></linearGradient><radialGradient id="radialGradient2735" cx="62.625" cy="4.625" r="10.625" fx="62.625" fy="4.625" gradientTransform="matrix(1,0,0,0.341176,0,3.047059)" gradientUnits="userSpaceOnUse" xlink:href="#linearGradient8838"/><linearGradient id="linearGradient6732"><stop id="stop6734" offset="0" style="stop-color:#fff;stop-opacity:1"/><stop id="stop6736" offset="1" style="stop-color:#ddd;stop-opacity:1"/></linearGradient><filter id="filter5670" width="1.171" height="2.474" x="-.085" y="-.737"><feGaussianBlur id="feGaussianBlur5672" stdDeviation=".384"/></filter><linearGradient id="linearGradient5586"><stop id="stop5588" offset="0" style="stop-color:#bfbcb3;stop-opacity:1"/><stop id="stop5590" offset="1" style="stop-color:#9c988a;stop-opacity:1"/></linearGradient><linearGradient id="linearGradient5592" x1="24.635" x2="24.635" y1="7.203" y2="12.381" gradientUnits="userSpaceOnUse" xlink:href="#linearGradient5586"/><linearGradient id="linearGradient5788"><stop id="stop5790" offset="0" style="stop-color:#fff;stop-opacity:1"/><stop id="stop5792" offset="1" style="stop-color:#fff;stop-opacity:0"/></linearGradient><linearGradient id="linearGradient5794" x1="24.5" x2="24.5" y1="-38.5" y2="-1.625" gradientUnits="userSpaceOnUse" xlink:href="#linearGradient5788"/><filter id="filter5766" width="1.181" height="1.638" x="-.091" y="-.319"><feGaussianBlur id="feGaussianBlur5768" stdDeviation=".793"/></filter><linearGradient id="linearGradient5772"><stop style="stop-color:#e2b369;stop-opacity:1" id="stop5774" offset="0"/><stop style="stop-color:#c79b55;stop-opacity:1" id="stop5776" offset="1"/></linearGradient><linearGradient id="linearGradient5784" x1="25.5" x2="26" y1="-13.625" y2="-39.125" gradientUnits="userSpaceOnUse" xlink:href="#linearGradient5772"/><filter id="filter5830" width="1.167" height="1.904" x="-.084" y="-.452"><feGaussianBlur id="feGaussianBlur5832" stdDeviation="1.469"/></filter></defs><metadata id="metadata2766"/><g id="layer1"><g id="g2459" transform="matrix(1.4916468,0,0,1.3507549,-5.9368922,1.7374281)"><rect style="opacity:.35294118;fill:#000;fill-opacity:1;fill-rule:nonzero;stroke:none;stroke-width:1;stroke-linecap:butt;stroke-linejoin:miter;marker:none;marker-start:none;marker-mid:none;marker-end:none;stroke-miterlimit:4;stroke-dasharray:none;stroke-dashoffset:0;stroke-opacity:1;visibility:visible;display:block;overflow:visible;filter:url(#filter5830);enable-background:accumulate" id="rect5984" width="35.125" height="6.5" x="19.515" y="38.438" rx="4.486" ry="7.273" transform="matrix(0.7245031,0,0,0.4468592,6.1716863,23.280448)"/><rect id="rect5796" width="35.125" height="6.5" x="6.875" y="35.875" rx="3.25" ry="5.281" transform="matrix(1,0,0,0.6153846,0,15.798077)" style="opacity:.41764706;fill:#000;fill-opacity:1;fill-rule:nonzero;stroke:none;stroke-width:1;stroke-linecap:butt;stroke-linejoin:miter;marker:none;marker-start:none;marker-mid:none;marker-end:none;stroke-miterlimit:4;stroke-dasharray:none;stroke-dashoffset:0;stroke-opacity:1;visibility:visible;display:block;overflow:visible;filter:url(#filter5830);enable-background:accumulate"/><rect id="rect4613" width="30" height="32" x="9.5" y="-40.5" rx="2.75" ry="2.75" transform="scale(1,-1)" style="opacity:1;fill:url(#linearGradient5784);fill-opacity:1;fill-rule:nonzero;stroke:#8f5902;stroke-width:1;stroke-linecap:butt;stroke-linejoin:miter;marker:none;marker-start:none;marker-mid:none;marker-end:none;stroke-miterlimit:4;stroke-dasharray:none;stroke-dashoffset:0;stroke-opacity:1;visibility:visible;display:block;overflow:visible;enable-background:accumulate"/><path style="opacity:.44117647;fill:#000;fill-opacity:1;fill-rule:nonzero;stroke:none;stroke-width:1;stroke-linecap:butt;stroke-linejoin:miter;marker:none;marker-start:none;marker-mid:none;marker-end:none;stroke-miterlimit:4;stroke-dasharray:none;stroke-dashoffset:0;stroke-opacity:1;visibility:visible;display:block;overflow:visible;filter:url(#filter5766);enable-background:accumulate" id="path5674" d="M 16.722015,14.506832 L 32.354478,14.506832 C 33.32675,14.551026 33.381283,12.617748 33.381283,12.617748 L 30.497073,10.307271 L 30.506162,9.5527475 C 30.506162,9.5527475 18.491032,9.5321977 18.491032,9.5321977 L 18.491032,10.422399 L 15.890165,12.665036 C 15.890165,12.665036 15.838132,14.462638 16.722015,14.506832 z" transform="matrix(1.0502474,0,0,1.0502474,-1.2378669,-1.6664683)"/><rect style="opacity:.41764706;fill:none;fill-opacity:1;fill-rule:nonzero;stroke:url(#linearGradient5794);stroke-width:.99999994;stroke-linecap:butt;stroke-linejoin:miter;marker:none;marker-start:none;marker-mid:none;marker-end:none;stroke-miterlimit:4;stroke-dasharray:none;stroke-dashoffset:0;stroke-opacity:1;visibility:visible;display:block;overflow:visible;enable-background:accumulate" id="rect5786" width="27.73" height="29.578" x="10.635" y="-39.289" rx="1.25" ry="1.25" transform="scale(1,-1)"/><path id="path5584" d="M 16.722015,12.506832 L 32.354478,12.506832 C 33.32675,12.551026 33.381283,10.617748 33.381283,10.617748 L 30.497073,8.3072713 L 30.506162,4.5527475 C 30.506162,3.7301333 29.81436,2.6194691 28.807357,2.6194691 L 20.287314,2.5310808 C 19.074886,2.5310808 18.491032,3.719232 18.491032,4.5321977 L 18.491032,8.4223989 L 15.890165,10.665036 C 15.890165,10.665036 15.838132,12.462638 16.722015,12.506832 z" style="opacity:1;fill:url(#linearGradient5592);fill-opacity:1;fill-rule:nonzero;stroke:#555753;stroke-width:1;stroke-linecap:butt;stroke-linejoin:miter;marker:none;marker-start:none;marker-mid:none;marker-end:none;stroke-miterlimit:4;stroke-dasharray:none;stroke-dashoffset:0;stroke-opacity:1;visibility:visible;display:block;overflow:visible;enable-background:accumulate"/><rect id="rect5594" width="15" height="1.042" x="17" y="10" rx=".521" ry=".521" style="opacity:.46470588;fill:#fff;fill-opacity:1;fill-rule:nonzero;stroke:none;stroke-width:1;stroke-linecap:butt;stroke-linejoin:miter;marker:none;marker-start:none;marker-mid:none;marker-end:none;stroke-miterlimit:4;stroke-dasharray:none;stroke-dashoffset:0;stroke-opacity:1;visibility:visible;display:block;overflow:visible;enable-background:accumulate"/><rect style="opacity:.53529412;fill:#fff;fill-opacity:1;fill-rule:nonzero;stroke:none;stroke-width:1;stroke-linecap:butt;stroke-linejoin:miter;marker:none;marker-start:none;marker-mid:none;marker-end:none;stroke-miterlimit:4;stroke-dasharray:none;stroke-dashoffset:0;stroke-opacity:1;visibility:visible;display:block;overflow:visible;filter:url(#filter5670);enable-background:accumulate" id="rect5596" width="9" height="1.042" x="20" y="4" rx=".521" ry=".521"/></g><g id="g2688" transform="matrix(0.8156093,0,0,0.8156093,24.230249,23.665942)"><g id="g3020" transform="matrix(1.673435,0,0,1.673435,-3.189256,-2.668541)"><g style="display:inline" id="g8936" transform="matrix(1.284706,0,0,1.284706,-63.89629,19.96894)"><path id="path8836" d="M 73.25,4.625 A 10.625,3.625 0 1 1 52,4.625 A 10.625,3.625 0 1 1 73.25,4.625 z" transform="matrix(1,0,0,1.192473,-0.590821,-2.378705)" style="opacity:.56043958;fill:url(#radialGradient2735);fill-opacity:1;fill-rule:evenodd;stroke:none;stroke-width:.99999988;stroke-linecap:butt;stroke-linejoin:round;marker:none;marker-start:none;marker-mid:none;marker-end:none;stroke-miterlimit:4;stroke-dasharray:none;stroke-dashoffset:0;stroke-opacity:1;visibility:visible;display:inline;overflow:visible"/><path id="path6495" d="M 71.455637,-3.5111605 C 71.455637,1.6006722 67.3116,5.7446615 62.20047,5.7446615 C 57.088872,5.7446615 52.94507,1.6006253 52.94507,-3.5111605 C 52.94507,-8.6227588 57.088872,-12.766327 62.20047,-12.766327 C 67.3116,-12.766327 71.455637,-8.6227588 71.455637,-3.5111605 L 71.455637,-3.5111605 z" style="fill:url(#radialGradient2737);fill-opacity:1;fill-rule:nonzero;stroke:#204a87;stroke-width:.46514398;stroke-miterlimit:4;stroke-dasharray:none"/><path style="opacity:.52747258;fill:none;fill-opacity:1;fill-rule:nonzero;stroke:url(#linearGradient2739);stroke-width:.46514425;stroke-miterlimit:4;stroke-dasharray:none;stroke-opacity:1" id="path8655" d="M 70.945908,-3.5111451 C 70.945908,1.3191267 67.030126,5.234864 62.200518,5.234864 C 57.370468,5.234864 53.454907,1.3190823 53.454907,-3.5111451 C 53.454907,-8.3411954 57.370468,-12.256535 62.200518,-12.256535 C 67.030126,-12.256535 70.945908,-8.3411954 70.945908,-3.5111451 L 70.945908,-3.5111451 z"/><image id="image6522" width="10.785" height="16.411" x="61.522" y="-11.413" href="62169F0D.png" style="opacity:.75;fill:#fff;fill-rule:nonzero;stroke:url(#radialGradient2741);stroke-miterlimit:4"/><image id="image6530" width="2.344" height="2.344" x="61.991" y="-10.944" href="62169F0E.png" style="opacity:.75;fill:#fff;fill-rule:nonzero;stroke:url(#radialGradient2743);stroke-miterlimit:4"/><g id="g6532" transform="matrix(0.468894,0,0,0.468894,50.39042,-14.57365)" style="fill:#9db029;fill-rule:nonzero;stroke:url(#radialGradient2747);stroke-miterlimit:4"><path style="fill:#9db029;stroke:url(#radialGradient2745)" id="path6534" d="M 26.0703,9.2363 L 25.9971,9.7295 L 26.5069,10.0586 L 27.378,9.4829 L 26.9425,8.9892 L 26.3605,9.3188 L 26.0705,9.2363"/></g><image id="image6538" width="5.627" height="4.689" x="58.709" y="-12.82" href="62169F0F.png" style="opacity:.75;fill:#fff;fill-rule:nonzero;stroke:url(#radialGradient2749);stroke-miterlimit:4"/><image id="image6546" width="2.344" height="2.344" x="62.929" y="-9.538" href="62169F10.png" style="opacity:.75;fill:#fff;fill-rule:nonzero;stroke:url(#radialGradient2751);stroke-miterlimit:4"/><g id="g6548" transform="matrix(0.468894,0,0,0.468894,49.7717,-14.57365)" style="fill:#9db029;fill-rule:nonzero;stroke:url(#radialGradient2755);stroke-miterlimit:4"><path style="fill:#9db029;stroke:url(#radialGradient2753)" id="path6550" d="M 28.833,12.7749 L 28.542,12.0337 L 28.0322,12.1987 L 28.1787,13.103 L 28.833,12.7749"/></g><image id="image6554" width="2.344" height="3.282" x="63.398" y="-10.007" href="62169F11.png" style="opacity:.75;fill:#fff;fill-rule:nonzero;stroke:url(#radialGradient2757);stroke-miterlimit:4"/><g id="g6556" transform="matrix(0.468894,0,0,0.468894,49.94848,-14.57365)" style="fill:#9db029;fill-rule:nonzero;stroke:url(#radialGradient2761);stroke-miterlimit:4"><path style="fill:#9db029;stroke:url(#radialGradient2759)" id="path6558" d="M 29.123,12.6089 L 28.9775,13.5972 L 29.7773,13.4322 L 30.3584,12.857 L 29.8496,12.3629 C 29.6787,11.9078 29.4824,11.483 29.2685,11.0465 L 28.833,11.0465 L 28.833,11.5397 L 29.123,11.8688 L 29.123,12.609"/></g><image id="image6562" width="9.847" height="17.349" x="52.144" y="-11.413" href="62169F12.png" style="opacity:.75;fill:#fff;fill-rule:nonzero;stroke:url(#radialGradient2763);stroke-miterlimit:4"/><image id="image6570" width="2.344" height="2.344" x="57.771" y="-10.944" href="62169F13.png" style="opacity:.75;fill:#fff;fill-rule:nonzero;stroke:url(#radialGradient2765);stroke-miterlimit:4"/><g id="g6572" transform="matrix(0.468894,0,0,0.468894,50.39042,-14.57365)" style="fill:#9db029;fill-rule:nonzero;stroke:url(#radialGradient2769);stroke-miterlimit:4"><path style="fill:#9db029;stroke:url(#radialGradient2767)" id="path6574" d="M 16.7656,9.5649 L 17.4922,10.0586 L 18.0742,10.0586 L 18.0742,9.4829 L 17.3476,9.1538 L 16.7656,9.5649"/></g><image id="image6578" width="4.22" height="3.282" x="56.364" y="-11.882" href="62169F14.png" style="opacity:.75;fill:#fff;fill-rule:nonzero;stroke:url(#radialGradient2771);stroke-miterlimit:4"/><image id="image6606" width="3.751" height="2.813" x="57.302" y="-12.82" href="2D44FCEC.png" style="opacity:.75;fill:#fff;fill-rule:nonzero;stroke:url(#radialGradient2773);stroke-miterlimit:4"/><g id="g6608" transform="matrix(0.468894,0,0,0.468894,50.96494,-14.52946)" style="fill:#9db029;fill-rule:nonzero;stroke:url(#radialGradient2777);stroke-miterlimit:4"><path style="fill:#9db029;stroke:url(#radialGradient2775)" id="path6610" d="M 17.4922,7.887132 L 17.856,7.558532 L 18.5831,7.393932 C 19.0811,7.151732 19.5811,6.988632 20.1095,6.817732 L 19.8195,6.324032 L 18.881,6.458832 L 18.4376,6.900732 L 17.7066,7.006732 L 17.0567,7.311932 L 16.7408,7.464732 L 16.5479,7.723032 L 17.4922,7.887132"/></g><image id="image6614" width="2.344" height="2.344" x="58.24" y="-8.6" href="2D44FCED.png" style="opacity:.75;fill:#fff;fill-rule:nonzero;stroke:url(#radialGradient2779);stroke-miterlimit:4"/><g id="g6616" transform="matrix(0.468894,0,0,0.468894,50.56718,-14.30851)" style="fill:#9db029;fill-rule:nonzero;stroke:url(#radialGradient2783);stroke-miterlimit:4"><path style="fill:#9db029;stroke:url(#radialGradient2781)" id="path6618" d="M 18.7285,14.6665 L 19.165,14.0083 L 18.5102,13.5151 L 18.7285,14.6665"/></g><image id="image6624" width="10.785" height="16.411" x="61.522" y="-11.413" href="2D44FCEE.png" style="opacity:.15750002;fill:#fff;fill-rule:nonzero;stroke:url(#radialGradient2785);stroke-miterlimit:4"/><image id="image6632" width="2.344" height="2.344" x="61.991" y="-10.944" href="2D44FCEF.png" style="opacity:.15750002;fill:#fff;fill-rule:nonzero;stroke:url(#radialGradient2787);stroke-miterlimit:4"/><image id="image6640" width="5.627" height="4.689" x="58.709" y="-12.82" href="2D44FCF0.png" style="opacity:.15750002;fill:#fff;fill-rule:nonzero;stroke:url(#radialGradient2789);stroke-miterlimit:4"/><image id="image6648" width="2.344" height="2.344" x="62.929" y="-9.538" href="2D44FCF1.png" style="opacity:.15750002;fill:#fff;fill-rule:nonzero;stroke:url(#radialGradient2791);stroke-miterlimit:4"/><image id="image6656" width="2.344" height="3.282" x="63.398" y="-10.007" href="2D44FCF2.png" style="opacity:.15750002;fill:#fff;fill-rule:nonzero;stroke:url(#radialGradient2793);stroke-miterlimit:4"/><image id="image6664" width="9.847" height="17.349" x="52.144" y="-11.413" href="2D44FCF3.png" style="opacity:.15750002;fill:#fff;fill-rule:nonzero;stroke:url(#radialGradient2795);stroke-miterlimit:4"/><image id="image6672" width="2.344" height="2.344" x="57.771" y="-10.944" href="2D44FCF4.png" style="opacity:.15750002;fill:#fff;fill-rule:nonzero;stroke:url(#radialGradient2797);stroke-miterlimit:4"/><image id="image6680" width="4.22" height="3.282" x="56.364" y="-11.882" href="2D44FCF5.png" style="opacity:.15750002;fill:#fff;fill-rule:nonzero;stroke:url(#radialGradient2799);stroke-miterlimit:4"/><image id="image6708" width="3.751" height="2.813" x="57.302" y="-12.82" href="2D44FD11.png" style="opacity:.15750002;fill:#fff;fill-rule:nonzero;stroke:url(#radialGradient2801);stroke-miterlimit:4"/><image id="image6716" width="2.344" height="2.344" x="58.24" y="-8.6" href="2D44FD12.png" style="opacity:.15750002;fill:#fff;fill-rule:nonzero;stroke:url(#radialGradient2803);stroke-miterlimit:4"/><g id="g6564" transform="matrix(0.468894,0,0,0.468894,50.74397,-14.61784)" style="fill:url(#radialGradient2809);fill-opacity:1;fill-rule:nonzero;stroke:url(#radialGradient2811);stroke-miterlimit:4"><path style="fill:url(#radialGradient2805);fill-opacity:1;stroke:url(#radialGradient2807)" id="path6566" d="M 17.943241,27.768799 L 17.424668,26.742079 L 16.453191,26.522353 L 15.935064,25.130138 L 14.639881,25.276354 L 13.539117,24.470606 L 12.372685,25.496524 L 12.372685,25.658333 C 12.019842,25.55649 11.586095,25.54259 11.271922,25.349417 L 11.012635,24.616733 L 11.012635,23.810095 L 10.235579,23.883158 C 10.300445,23.369754 10.364776,22.85724 10.430088,22.343925 L 9.9762924,22.343925 L 9.523388,22.930393 L 9.0695925,23.149672 L 8.4217333,22.784177 L 8.3568672,21.977538 L 8.4865103,21.097836 L 9.4584328,20.365152 L 10.23549,20.365152 L 10.364687,19.9249 L 11.336164,20.144179 L 12.0488,21.024772 L 12.178443,19.557711 L 13.409207,18.531793 L 13.862557,17.431921 L 14.769256,17.065623 L 15.287383,16.332939 L 16.452924,16.111966 L 17.036363,15.233155 C 16.45337,15.233155 15.870376,15.233155 15.287383,15.233155 L 16.388503,14.719751 L 17.165115,14.719751 L 18.26668,14.352562 L 18.396323,13.914003 L 18.007394,13.546815 L 17.554044,13.399797 L 17.683687,12.960347 L 17.35998,12.300815 L 16.582478,12.593158 L 16.712121,12.007136 L 15.805421,11.493731 L 15.093231,12.739285 L 15.157651,13.179537 L 14.445461,13.473662 L 13.991665,14.426428 L 13.797601,13.546726 L 12.566838,13.033321 L 12.372329,12.37379 L 13.991665,11.420133 L 14.704301,10.760601 L 14.769167,9.9544084 L 14.380684,9.7342382 L 13.862557,9.6607292 L 13.53885,10.467367 C 13.53885,10.467367 12.9972,10.573488 12.857934,10.607881 C 11.079373,12.246819 7.4857189,15.784785 6.650835,22.463945 C 6.6838918,22.618804 7.2560145,23.516772 7.2560145,23.516772 L 8.6160643,24.322519 L 9.9761142,24.689708 L 10.559553,25.423194 L 11.465807,26.082725 L 11.983934,26.009662 L 12.372418,26.184569 L 12.372418,26.302896 L 11.854647,27.695557 L 11.465718,28.282025 L 11.595361,28.57615 L 11.271654,29.674241 L 12.437641,31.800833 L 13.603181,32.827553 L 14.121754,33.560237 L 14.056531,35.100362 L 14.445461,35.979173 L 14.056531,37.665514 C 14.056531,37.665514 14.026058,37.655089 14.075688,37.823848 C 14.125763,37.992695 16.150958,39.116893 16.27971,39.021198 C 16.408017,38.92372 16.517701,38.83845 16.517701,38.83845 L 16.388503,38.472954 L 16.906274,37.95955 L 17.100783,37.446145 L 17.943063,37.15202 L 18.590476,35.538832 L 18.396413,35.100273 L 18.848871,34.440741 L 19.820794,34.219769 L 20.339366,33.046833 L 20.209723,31.581554 L 20.98678,30.481681 L 21.116423,29.381808 C 20.053082,28.854504 18.998473,28.311518 17.943063,27.76862"/></g><g id="g6540" transform="matrix(0.468894,0,0,0.468894,50.523,-14.44107)" style="fill:url(#radialGradient2817);fill-opacity:1;fill-rule:nonzero;stroke:url(#radialGradient2819);stroke-miterlimit:4"><path style="fill:url(#radialGradient2813);fill-opacity:1;stroke:url(#radialGradient2815)" id="path6542" d="M 26.8701,6.6933256 L 24.9795,5.9526256 L 22.7998,6.1992256 L 20.1094,6.9394256 L 19.6006,7.4335256 L 21.2725,8.5849256 L 21.2725,9.2431256 L 20.6182,9.9013256 L 21.4912,11.630324 L 22.0713,11.300224 L 22.7998,10.148825 C 23.9228,9.8016256 24.9297,9.4081256 25.9971,8.9144256 L 26.8701,6.6932256"/></g><g id="g6580" transform="matrix(0.468894,0,0,0.468894,50.83236,-14.75043)" style="fill:url(#radialGradient2825);fill-opacity:1;fill-rule:nonzero;stroke:url(#radialGradient2827);stroke-miterlimit:4"><path style="fill:url(#radialGradient2821);fill-opacity:1;stroke:url(#radialGradient2823)" id="path6582" d="M 15.187259,9.6334723 L 14.823459,10.538271 L 15.550559,10.538271 L 15.914359,9.7154723 C 16.227859,9.4937723 16.539859,9.2706723 16.859159,9.0572723 L 17.586259,9.3043723 C 18.070659,9.6334723 18.555059,9.9625723 19.039859,10.291172 L 19.767359,9.6334723 L 18.967059,9.3043723 L 18.603259,8.5636723 L 17.222359,8.3990723 L 17.149559,7.9874723 L 16.495259,8.1524723 L 16.204859,8.7282723 L 15.841059,7.9875723 L 15.696059,8.3166723 L 15.768859,9.1394723 L 15.187259,9.6334723"/></g><g id="g6626" transform="matrix(0.468894,0,0,0.468894,50.12526,-14.48526)" style="fill:url(#radialGradient2833);fill-opacity:1;fill-rule:nonzero;stroke:url(#radialGradient2835);stroke-miterlimit:4"><path style="fill:url(#radialGradient2829);fill-opacity:1;stroke:url(#radialGradient2831)" id="path6628" d="M 42.893123,20.729176 C 42.893123,20.97037 42.893123,20.729176 42.893123,20.729176 L 42.392832,21.295848 C 42.086175,20.934471 41.741875,20.630568 41.392249,20.313169 L 40.624781,20.4261 L 39.923602,19.633475 L 39.923602,20.614409 L 40.524337,21.068977 L 40.924185,21.521801 L 41.458539,20.917485 C 41.593045,21.169421 41.725716,21.421357 41.859304,21.673293 L 41.859304,22.428275 L 41.257651,23.107877 L 40.156625,23.863685 L 39.322775,24.69579 L 38.788421,24.089638 L 39.055598,23.410035 L 38.522071,22.80572 L 37.621014,20.87975 L 36.853546,20.011838 L 36.652658,20.237791 L 36.953898,21.333492 L 37.52057,21.975451 C 37.844212,22.909744 38.164366,23.802721 38.58937,24.69579 C 39.248406,24.69579 39.869708,24.625828 40.524245,24.54338 L 40.524245,25.072409 L 39.723541,27.036481 L 38.989217,27.86675 L 38.388482,29.152504 C 38.388482,29.857264 38.388482,30.562024 38.388482,31.266692 L 38.58937,32.098797 L 38.255812,32.475415 L 37.52057,32.929065 L 36.753102,33.571024 L 37.3879,34.288362 L 36.519988,35.045089 L 36.686721,35.534638 L 35.384807,37.008702 L 34.517813,37.008702 L 33.783489,37.462352 L 33.315425,37.462352 L 33.315425,36.858036 L 33.116373,35.647568 C 32.858102,34.889006 32.589181,34.13586 32.315668,33.382715 C 32.315668,32.826785 32.348813,32.276272 32.382049,31.720433 L 32.716526,30.965452 L 32.248461,30.05806 L 32.282524,28.811785 L 31.647726,28.094447 L 31.965125,27.056129 L 31.448674,26.470176 L 30.5467,26.470176 L 30.246378,26.130375 L 29.345321,26.697506 L 28.978619,26.28104 L 28.143851,26.998746 C 27.577179,26.356327 27.009588,25.714368 26.44209,25.072409 L 25.774974,23.485414 L 26.375709,22.579859 L 26.042151,22.202414 L 26.775556,20.463835 C 27.378127,19.714271 28.007508,18.995188 28.644142,18.273443 L 29.779231,17.971285 L 31.047083,17.820619 L 31.914995,18.04749 L 33.14961,19.292847 L 33.583611,18.80238 L 34.183428,18.727093 L 35.318517,19.104538 L 36.18643,19.104538 L 36.787165,18.575509 L 37.054342,18.198064 L 36.452688,17.820619 L 35.451188,17.745332 C 35.173269,17.359808 34.914998,16.954543 34.58502,16.611988 L 34.250544,16.762653 L 34.116955,17.745332 L 33.51622,17.065729 L 33.38355,16.309003 L 32.716434,15.781811 L 32.448339,15.781811 L 33.116281,16.536792 L 32.849104,17.216395 L 32.315577,17.367061 L 32.649135,16.687458 L 32.047481,16.386218 L 31.514872,15.781903 L 30.512453,16.007855 L 30.379783,16.309095 L 29.779048,16.687458 L 29.44549,17.518645 L 28.61164,17.933733 L 28.24402,17.518645 L 27.844172,17.518645 L 27.844172,16.158521 L 28.712084,15.704871 L 29.3792,15.704871 L 29.244694,15.176761 L 28.712084,14.647732 L 29.612315,14.458504 L 30.112606,13.89275 L 30.512453,13.212229 L 31.247695,13.212229 L 31.046807,12.684119 L 31.514872,12.381961 L 31.514872,12.986276 L 32.515454,13.212229 L 33.516037,12.381961 L 33.583244,12.003598 L 34.450238,11.399741 C 34.13642,11.438762 33.822602,11.467407 33.515945,11.550866 L 33.515945,10.870437 L 33.849503,10.114996 L 33.515945,10.114996 L 32.782907,10.794599 L 32.582019,11.172503 L 32.782907,11.701991 L 32.448431,12.607546 L 31.914903,12.305388 L 31.448674,11.777278 L 30.713433,12.305388 L 30.446256,11.097216 L 31.714107,10.266488 L 31.714107,9.8128376 L 32.515638,9.284268 L 33.783489,8.981651 L 34.651401,9.284268 L 36.252719,9.5864259 L 35.852871,10.03925 L 34.984959,10.03925 L 35.852871,10.945724 L 36.519988,10.190742 L 36.72262,9.8585606 C 36.72262,9.8585606 39.281551,12.15206 40.743955,14.660861 C 42.206359,17.170489 42.893123,20.128441 42.893123,20.729176 z"/></g></g></g></g></g></svg>